<svg width="20" height="20" viewBox="0 0 20 20" fill="none" xmlns="http://www.w3.org/2000/svg">
<path d="M9.99985 1.66644C14.6024 1.66644 18.3331 5.39727 18.3331 9.99979C18.3331 14.6023 14.6024 18.3331 9.99985 18.3331C5.39733 18.3331 1.6665 14.6023 1.6665 9.99979C1.6665 5.39727 5.39733 1.66644 9.99985 1.66644ZM11.3915 13.3331H8.60814L7.45814 14.9139L7.91985 16.3356C8.59128 16.5554 9.29335 16.6671 9.99985 16.6664C10.7256 16.6664 11.4249 16.5498 12.0799 16.3356L12.5406 14.9139L11.3915 13.3331ZM4.4115 9.05979L3.33483 9.84144L3.33317 9.99979C3.33317 11.4414 3.79067 12.7756 4.56817 13.8664H6.15983L7.26235 12.3498L6.40567 9.70808L4.4115 9.05979ZM15.5881 9.05979L13.594 9.70808L12.7374 12.3498L13.839 13.8664H15.4306C16.2366 12.7384 16.6687 11.3862 16.6665 9.99979L16.664 9.84058L15.5881 9.05979ZM11.9081 3.61061L10.8331 4.39394V6.49144L13.0781 8.12229L14.9449 7.51644L15.4065 6.09727C14.5469 4.90571 13.3176 4.03152 11.9099 3.61061M8.0915 3.61061C6.68365 4.03174 5.45438 4.90623 4.59483 6.09811L5.0565 7.51644L6.92233 8.12229L9.1665 6.49144V4.39394L8.0915 3.61061Z" fill="#2563EB"/>
</svg>
