<svg width="20" height="20" viewBox="0 0 20 20" fill="none" xmlns="http://www.w3.org/2000/svg">
<path d="M18.3331 9.99979C18.3331 14.6023 14.6024 18.3331 9.99985 18.3331C5.39733 18.3331 1.6665 14.6023 1.6665 9.99979C1.6665 5.39727 5.39733 1.66644 9.99985 1.66644C14.6024 1.66644 18.3331 5.39727 18.3331 9.99979Z" stroke="url(#paint0_linear_21_1425)" stroke-width="1.88311" stroke-linecap="round" stroke-linejoin="round"/>
<path d="M1.6665 10.7914C6.78733 11.2998 11.2981 6.76311 10.7915 1.66644M9.20814 18.3331C8.69985 13.2123 13.239 8.70144 18.334 9.20808" stroke="url(#paint1_linear_21_1425)" stroke-width="1.88311" stroke-linecap="round" stroke-linejoin="round"/>
<path d="M14.1661 16.6662C14.1661 10.6829 9.31611 5.83287 3.33276 5.83287" stroke="url(#paint2_linear_21_1425)" stroke-width="1.88311" stroke-linecap="round" stroke-linejoin="round"/>
<defs>
<linearGradient id="paint0_linear_21_1425" x1="18.3331" y1="9.99979" x2="1.6665" y2="9.99979" gradientUnits="userSpaceOnUse">
<stop stop-color="#6A7282"/>
<stop offset="1" stop-color="#6A7282"/>
</linearGradient>
<linearGradient id="paint1_linear_21_1425" x1="18.334" y1="9.99979" x2="1.6665" y2="9.99979" gradientUnits="userSpaceOnUse">
<stop stop-color="#6A7282"/>
<stop offset="1" stop-color="#6A7282"/>
</linearGradient>
<linearGradient id="paint2_linear_21_1425" x1="14.1661" y1="11.2496" x2="3.33276" y2="11.2496" gradientUnits="userSpaceOnUse">
<stop stop-color="#6A7282"/>
<stop offset="1" stop-color="#6A7282"/>
</linearGradient>
</defs>
</svg>
