<svg width="20" height="20" viewBox="0 0 20 20" fill="none" xmlns="http://www.w3.org/2000/svg">
<path d="M9.25 5.91666C12.581 5.89438 15.8074 7.07841 18.3333 9.24999" stroke="#2563EB" stroke-width="1.66667" stroke-linecap="round" stroke-linejoin="round"/>
<path d="M10 10C9.14139 11.1541 8.05482 12.1194 6.80767 12.8362C5.56053 13.5529 4.17941 14.0058 2.75 14.1667" stroke="#2563EB" stroke-width="1.66667" stroke-linecap="round" stroke-linejoin="round"/>
<path d="M14 11.3333C12.3457 14.2614 9.67842 16.4841 6.5 17.5833" stroke="#2563EB" stroke-width="1.66667" stroke-linecap="round" stroke-linejoin="round"/>
<path d="M17.25 14.1667C16.3845 13.0196 15.2962 12.0593 14.0504 11.3433C12.8045 10.6273 11.4268 10.1704 10 10C8.916 7.32799 8.916 4.33869 10 1.66667" stroke="#2563EB" stroke-width="1.66667" stroke-linecap="round" stroke-linejoin="round"/>
<path d="M5.25001 3.16667C4.59821 6.44743 5.16091 9.85325 6.83335 12.75" stroke="#2563EB" stroke-width="1.66667" stroke-linecap="round" stroke-linejoin="round"/>
<path d="M10.0001 18.3333C14.6025 18.3333 18.3334 14.6024 18.3334 10C18.3334 5.39763 14.6025 1.66667 10.0001 1.66667C5.39771 1.66667 1.66675 5.39763 1.66675 10C1.66675 14.6024 5.39771 18.3333 10.0001 18.3333Z" stroke="#2563EB" stroke-width="1.66667" stroke-linecap="round" stroke-linejoin="round"/>
</svg>
