<svg width="33" height="32" viewBox="0 0 33 32" fill="none" xmlns="http://www.w3.org/2000/svg">
<path d="M23.4 21.4H22.8V17.2C22.8 16.8818 22.6736 16.5765 22.4486 16.3514C22.2235 16.1264 21.9182 16 21.6 16H18.6V10.6C18.6 10.2817 18.4736 9.97651 18.2486 9.75147C18.0235 9.52643 17.7182 9.39999 17.4 9.39999H12.6C12.2817 9.39999 11.9765 9.52643 11.7515 9.75147C11.5264 9.97651 11.4 10.2817 11.4 10.6V13H8.4C8.08174 13 7.77651 13.1264 7.55147 13.3515C7.32643 13.5765 7.2 13.8817 7.2 14.2V21.4H6.6C6.44087 21.4 6.28826 21.4632 6.17574 21.5758C6.06322 21.6882 6 21.8409 6 22C6 22.1591 6.06322 22.3118 6.17574 22.4242C6.28826 22.5368 6.44087 22.6 6.6 22.6H23.4C23.5591 22.6 23.7118 22.5368 23.8242 22.4242C23.9368 22.3118 24 22.1591 24 22C24 21.8409 23.9368 21.6882 23.8242 21.5758C23.7118 21.4632 23.5591 21.4 23.4 21.4ZM11.4 21.4H8.4V14.2H11.4V21.4ZM15.9 16.6C15.9 16.7591 15.8368 16.9118 15.7242 17.0242C15.6118 17.1368 15.4591 17.2 15.3 17.2C15.1409 17.2 14.9882 17.1368 14.8758 17.0242C14.7632 16.9118 14.7 16.7591 14.7 16.6V14.4325L14.5898 14.4693C14.515 14.4942 14.4361 14.5041 14.3574 14.4986C14.2789 14.493 14.2022 14.4719 14.1317 14.4367C14.0612 14.4014 13.9983 14.3527 13.9467 14.2931C13.895 14.2336 13.8557 14.1645 13.8307 14.0897C13.8058 14.015 13.7959 13.9361 13.8014 13.8575C13.807 13.7789 13.8281 13.7021 13.8633 13.6316C13.8986 13.5612 13.9474 13.4983 14.0069 13.4467C14.0664 13.3951 14.1355 13.3557 14.2102 13.3307L15.1102 13.0307C15.2005 13.0007 15.2965 12.9925 15.3905 13.0068C15.4845 13.0212 15.5737 13.0576 15.6508 13.1132C15.728 13.1688 15.7908 13.2419 15.8341 13.3266C15.8774 13.4112 15.9 13.5049 15.9 13.6V16.6ZM21.6 21.4H18.6V17.2H21.6V21.4Z" fill="#667085"/>
</svg>
