<svg width="20" height="20" viewBox="0 0 20 20" fill="none" xmlns="http://www.w3.org/2000/svg">
<path d="M1.66675 9.16665H18.3334V16.6666C18.3334 16.8876 18.2456 17.0996 18.0893 17.2559C17.9331 17.4121 17.7211 17.5 17.5001 17.5H2.50008C2.27906 17.5 2.06711 17.4121 1.91082 17.2559C1.75455 17.0996 1.66675 16.8876 1.66675 16.6666V9.16665ZM14.1667 2.49998H17.5001C17.7211 2.49998 17.9331 2.58778 18.0893 2.74405C18.2456 2.90034 18.3334 3.1123 18.3334 3.33331V7.49998H1.66675V3.33331C1.66675 3.1123 1.75455 2.90034 1.91082 2.74405C2.06711 2.58778 2.27906 2.49998 2.50008 2.49998H5.83341V0.833313H7.50008V2.49998H12.5001V0.833313H14.1667V2.49998Z" fill="white"/>
</svg>
