<svg width="34" height="32" viewBox="0 0 34 32" fill="none" xmlns="http://www.w3.org/2000/svg">
<path d="M9.16663 21V24.1383L10.4291 23.3808L14.3975 21H18.3333C19.2525 21 20 20.2525 20 19.3333V12.6667C20 11.7475 19.2525 11 18.3333 11H8.33329C7.41413 11 6.66663 11.7475 6.66663 12.6667V19.3333C6.66663 20.2525 7.41413 21 8.33329 21H9.16663ZM8.33329 12.6667H18.3333V19.3333H13.9358L10.8333 21.195V19.3333H8.33329V12.6667Z" fill="#2563EB"/>
<path d="M21.6667 7.66666H11.6667C10.7475 7.66666 10 8.41416 10 9.33332H20C20.9192 9.33332 21.6667 10.0808 21.6667 11V17.6667C22.5858 17.6667 23.3333 16.9192 23.3333 16V9.33332C23.3333 8.41416 22.5858 7.66666 21.6667 7.66666Z" fill="#2563EB"/>
</svg>
