<svg width="33" height="32" viewBox="0 0 33 32" fill="none" xmlns="http://www.w3.org/2000/svg">
<path d="M7.7797 16.1852H10.488C10.6578 16.1852 10.8198 16.2277 10.9741 16.313C11.1285 16.3982 11.2442 16.5253 11.3214 16.6944L12.3399 18.7315L15.2102 12.9907C15.38 12.6358 15.6578 12.4583 16.0436 12.4583C16.4294 12.4583 16.7071 12.6358 16.8769 12.9907L18.4741 16.1852H20.6037C20.3723 14.6111 19.6547 13.2917 18.451 12.2268C17.2473 11.162 15.8276 10.6296 14.1917 10.6296C12.5559 10.6296 11.1362 11.162 9.93247 12.2268C8.72876 13.2917 8.01117 14.6111 7.7797 16.1852ZM14.1917 23.5926C15.8276 23.5926 17.2473 23.0602 18.451 21.9953C19.6547 20.9306 20.3723 19.6111 20.6037 18.037H17.8954C17.7256 18.037 17.5636 17.9947 17.4093 17.9102C17.255 17.8256 17.1392 17.6982 17.0621 17.5277L16.0436 15.4907L13.1732 21.2315C13.0035 21.5864 12.7257 21.7639 12.3399 21.7639C11.9541 21.7639 11.6763 21.5864 11.5065 21.2315L9.90932 18.037H7.7797C8.01117 19.6111 8.72876 20.9306 9.93247 21.9953C11.1362 23.0602 12.5559 23.5926 14.1917 23.5926ZM14.1917 25.4444C13.0498 25.4444 11.9735 25.2247 10.963 24.7852C9.95253 24.3457 9.06889 23.7475 8.3121 22.9907C7.55532 22.2339 6.95747 21.3503 6.51858 20.3398C6.0797 19.3293 5.85963 18.2531 5.8584 17.1111H7.71025C7.71025 18.9012 8.34297 20.429 9.6084 21.6944C10.8738 22.9599 12.4016 23.5926 14.1917 23.5926C15.9818 23.5926 17.5096 22.9599 18.7751 21.6944C20.0405 20.429 20.6732 18.9012 20.6732 17.1111H22.5251C22.5251 18.2531 22.3053 19.3297 21.8658 20.3407C21.4263 21.3518 20.8281 22.2352 20.0714 22.9907C19.3146 23.7463 18.4309 24.3444 17.4204 24.7852C16.41 25.2259 15.3337 25.4457 14.1917 25.4444ZM5.8584 17.1111C5.8584 15.9692 6.07846 14.8926 6.51858 13.8815C6.95871 12.8704 7.55655 11.987 8.3121 11.2315C9.06766 10.4759 9.9513 9.87808 10.963 9.43797C11.9748 8.99784 13.051 8.77777 14.1917 8.77777C15.1485 8.77777 16.0667 8.9321 16.9464 9.24074C17.826 9.54938 18.6516 9.99692 19.4232 10.5833L20.7195 9.28703L22.0158 10.5833L20.7195 11.8796C21.3059 12.6512 21.7535 13.4768 22.0621 14.3565C22.3707 15.2361 22.5251 16.1543 22.5251 17.1111H20.6732C20.6732 15.321 20.0405 13.7932 18.7751 12.5278C17.5096 11.2623 15.9818 10.6296 14.1917 10.6296C12.4016 10.6296 10.8738 11.2623 9.6084 12.5278C8.34297 13.7932 7.71025 15.321 7.71025 17.1111H5.8584ZM11.414 7.85185V6H16.9695V7.85185H11.414ZM14.1917 23.5926C12.4016 23.5926 10.8738 22.9599 9.6084 21.6944C8.34297 20.429 7.71025 18.9012 7.71025 17.1111C7.71025 15.321 8.34297 13.7932 9.6084 12.5278C10.8738 11.2623 12.4016 10.6296 14.1917 10.6296C15.9818 10.6296 17.5096 11.2623 18.7751 12.5278C20.0405 13.7932 20.6732 15.321 20.6732 17.1111C20.6732 18.9012 20.0405 20.429 18.7751 21.6944C17.5096 22.9599 15.9818 23.5926 14.1917 23.5926Z" fill="#2563EB"/>
</svg>
