<svg width="33" height="32" viewBox="0 0 33 32" fill="none" xmlns="http://www.w3.org/2000/svg">
<path d="M16.7666 8.79999L22.1 10.5778V15.0222H19.4333V22.1333C19.4333 22.3691 19.3397 22.5952 19.1729 22.7618C19.0063 22.9285 18.7801 23.0222 18.5445 23.0222H9.65553C9.41978 23.0222 9.19369 22.9285 9.02699 22.7618C8.8603 22.5952 8.76664 22.3691 8.76664 22.1333V15.0222H6.09998V10.5778L11.4333 8.79999C11.4333 9.50724 11.7143 10.1855 12.2144 10.6856C12.7145 11.1857 13.3927 11.4667 14.1 11.4667C14.8073 11.4667 15.4855 11.1857 15.9856 10.6856C16.4857 10.1855 16.7666 9.50724 16.7666 8.79999Z" stroke="#2563EB" stroke-width="1.6" stroke-linecap="round" stroke-linejoin="round"/>
<path d="M12.7656 15.0219H14.9879L13.6545 19.4663" stroke="#2563EB" stroke-width="1.6" stroke-linecap="round" stroke-linejoin="round"/>
</svg>
