<svg width="33" height="32" viewBox="0 0 33 32" fill="none" xmlns="http://www.w3.org/2000/svg">
<path d="M6.3999 16C6.3999 20.4184 9.9815 24 14.3999 24C18.8183 24 22.3999 20.4184 22.3999 16C22.3999 11.5816 18.8183 8 14.3999 8C9.9815 8 6.3999 11.5816 6.3999 16Z" stroke="#667085" stroke-width="1.6" stroke-linecap="round" stroke-linejoin="round"/>
<path d="M15.9999 17.8C15.9999 18.1312 16.2687 18.4 16.5999 18.4H17.5999C17.8121 18.4 18.0156 18.3157 18.1656 18.1657C18.3156 18.0157 18.3999 17.8122 18.3999 17.6V16.8C18.3999 16.5878 18.3156 16.3843 18.1656 16.2343C18.0156 16.0843 17.8121 16 17.5999 16H16.7999C16.5877 16 16.3842 15.9157 16.2342 15.7657C16.0842 15.6157 15.9999 15.4122 15.9999 15.2V14.4C15.9999 14.1878 16.0842 13.9843 16.2342 13.8343C16.3842 13.6843 16.5877 13.6 16.7999 13.6H17.7999C17.959 13.6 18.1117 13.6632 18.2241 13.7757C18.3367 13.8883 18.3999 14.0409 18.3999 14.2M10.3999 13.6L11.9999 18.4L13.5999 13.6" stroke="#667085" stroke-width="1.6" stroke-linecap="round" stroke-linejoin="round"/>
</svg>
