<svg width="20" height="20" viewBox="0 0 20 20" fill="none" xmlns="http://www.w3.org/2000/svg">
<path d="M5 9.16667H8.33333" stroke="#6A7282" stroke-width="1.66667" stroke-linecap="round" stroke-linejoin="round"/>
<path d="M6.66675 7.5V10.8333" stroke="#6A7282" stroke-width="1.66667" stroke-linecap="round" stroke-linejoin="round"/>
<path d="M12.5 10H12.5083" stroke="#6A7282" stroke-width="1.66667" stroke-linecap="round" stroke-linejoin="round"/>
<path d="M15 8.33333H15.0083" stroke="#6A7282" stroke-width="1.66667" stroke-linecap="round" stroke-linejoin="round"/>
<path d="M14.4334 4.16667H5.56675C4.74198 4.16686 3.94657 4.47282 3.33428 5.02539C2.72198 5.57796 2.33629 6.33792 2.25175 7.15834C2.24675 7.20167 2.24341 7.2425 2.23758 7.285C2.17008 7.84667 1.66675 12.0467 1.66675 13.3333C1.66675 13.9964 1.93014 14.6323 2.39898 15.1011C2.86782 15.5699 3.50371 15.8333 4.16675 15.8333C5.00008 15.8333 5.41675 15.4167 5.83341 15L7.01175 13.8217C7.32424 13.5091 7.74809 13.3334 8.19008 13.3333H11.8101C12.2521 13.3334 12.6759 13.5091 12.9884 13.8217L14.1667 15C14.5834 15.4167 15.0001 15.8333 15.8334 15.8333C16.4965 15.8333 17.1323 15.5699 17.6012 15.1011C18.07 14.6323 18.3334 13.9964 18.3334 13.3333C18.3334 12.0458 17.8301 7.84667 17.7626 7.285C17.7567 7.24334 17.7534 7.20167 17.7484 7.15917C17.6641 6.3386 17.2785 5.57845 16.6661 5.0257C16.0538 4.47296 15.2583 4.16689 14.4334 4.16667Z" stroke="#6A7282" stroke-width="1.66667" stroke-linecap="round" stroke-linejoin="round"/>
</svg>
