<svg width="20" height="20" viewBox="0 0 20 20" fill="none" xmlns="http://www.w3.org/2000/svg">
<path fill-rule="evenodd" clip-rule="evenodd" d="M10.8028 1.90484C10.7526 1.83754 10.6893 1.78105 10.6168 1.73874C10.5442 1.69644 10.4639 1.66918 10.3807 1.6586C10.2973 1.64803 10.2127 1.65434 10.1319 1.67718C10.0512 1.70001 9.97575 1.73889 9.91033 1.79151C8.31314 3.07354 7.25967 4.91198 6.96115 6.93818C6.4143 6.54067 5.93461 6.05818 5.54031 5.50901C5.48684 5.43426 5.41754 5.37223 5.33735 5.32732C5.25716 5.28242 5.16805 5.25575 5.07637 5.24923C4.9847 5.2427 4.89271 5.25648 4.80697 5.28957C4.72123 5.32266 4.64384 5.37425 4.58031 5.44067C3.47975 6.59197 2.77427 8.06374 2.56607 9.64281C2.35787 11.2218 2.65776 12.8261 3.42231 14.2234C4.18686 15.6206 5.37635 16.7381 6.81849 17.4141C8.26062 18.0901 9.8805 18.2895 11.4435 17.9833C13.0065 17.6771 14.4315 16.8813 15.512 15.7111C16.5924 14.541 17.2723 13.0572 17.4532 11.4748C17.6341 9.89239 17.3065 8.29348 16.5178 6.90969C15.7292 5.52592 14.5206 4.42912 13.067 3.77818C12.1734 3.34364 11.397 2.70126 10.8028 1.90484ZM13.1253 11.8748C13.125 12.3269 13.0267 12.7735 12.837 13.1837C12.6473 13.5941 12.3709 13.9584 12.0268 14.2515C11.6827 14.5446 11.2792 14.7596 10.8439 14.8816C10.4087 15.0037 9.95216 15.0298 9.50583 14.9583C9.0595 14.8868 8.634 14.7193 8.25866 14.4673C7.88335 14.2154 7.56716 13.8851 7.3319 13.4991C7.09665 13.1131 6.94792 12.6806 6.896 12.2316C6.84408 11.7826 6.89019 11.3276 7.03115 10.8981C7.55448 11.2856 8.15615 11.5731 8.80866 11.7315C8.98625 10.5909 9.553 9.54681 10.4128 8.77648C11.1637 8.87648 11.8526 9.24581 12.3516 9.81573C12.8505 10.3856 13.1255 11.1174 13.1253 11.8748Z" fill="white"/>
</svg>
