<svg width="20" height="20" viewBox="0 0 20 20" fill="none" xmlns="http://www.w3.org/2000/svg">
<path d="M5.28598 4.11464C5.36346 4.19203 5.42493 4.28394 5.46686 4.38511C5.5088 4.48627 5.53039 4.59471 5.53039 4.70422C5.53039 4.81373 5.5088 4.92217 5.46686 5.02334C5.42493 5.12451 5.36346 5.21641 5.28598 5.29381C4.03551 6.54448 3.33302 8.24064 3.33302 10.0092C3.33302 11.7778 4.03551 13.474 5.28598 14.7246C5.36557 14.8015 5.42906 14.8935 5.47274 14.9951C5.51641 15.0968 5.5394 15.2061 5.54036 15.3168C5.54132 15.4275 5.52024 15.5371 5.47834 15.6396C5.43643 15.742 5.37456 15.8351 5.29631 15.9133C5.21807 15.9916 5.12502 16.0534 5.02261 16.0953C4.9202 16.1372 4.81046 16.1583 4.69981 16.1573C4.58916 16.1564 4.47981 16.1334 4.37815 16.0897C4.27648 16.0461 4.18452 15.9826 4.10765 15.903C0.851813 12.648 0.851813 7.36964 4.10765 4.11464C4.26392 3.95841 4.47585 3.87065 4.69681 3.87065C4.91779 3.87065 5.12971 3.95841 5.28598 4.11464ZM15.896 4.11464C19.151 7.37047 19.151 12.648 15.896 15.903C15.7398 16.0593 15.5278 16.1472 15.3067 16.1473C15.0857 16.1474 14.8736 16.0596 14.7173 15.9034C14.5608 15.7471 14.473 15.5351 14.4729 15.3141C14.4728 15.0931 14.5606 14.881 14.7168 14.7246C15.9673 13.474 16.6698 11.7778 16.6698 10.0092C16.6698 8.24064 15.9673 6.54448 14.7168 5.29381C14.5604 5.13744 14.4726 4.92536 14.4726 4.70422C14.4726 4.48308 14.5604 4.27101 14.7168 4.11464C14.8732 3.95827 15.0853 3.87042 15.3064 3.87042C15.5275 3.87042 15.7396 3.95827 15.896 4.11464ZM7.75848 6.50964C7.91471 6.66591 8.00247 6.87783 8.00247 7.09881C8.00247 7.31977 7.91471 7.5317 7.75848 7.68797C7.45511 7.99131 7.21445 8.35148 7.05027 8.74781C6.88609 9.14415 6.80158 9.56898 6.80158 9.99798C6.80158 10.427 6.88609 10.8518 7.05027 11.2481C7.21445 11.6445 7.45511 12.0046 7.75848 12.308C7.83586 12.3854 7.89721 12.4773 7.93907 12.5785C7.98092 12.6796 8.00244 12.788 8.0024 12.8974C8.00236 13.0069 7.98076 13.1152 7.93884 13.2164C7.89692 13.3175 7.83549 13.4093 7.75806 13.4867C7.68064 13.5641 7.58874 13.6255 7.4876 13.6673C7.38646 13.7091 7.27806 13.7306 7.1686 13.7306C7.05915 13.7306 6.95077 13.709 6.84966 13.6671C6.74855 13.6251 6.65669 13.5637 6.57931 13.4863C5.65417 12.5611 5.13444 11.3063 5.13444 9.99798C5.13444 8.68956 5.65417 7.43481 6.57931 6.50964C6.65671 6.43216 6.74862 6.37069 6.84978 6.32876C6.95095 6.28681 7.05939 6.26523 7.1689 6.26523C7.27841 6.26523 7.38686 6.28681 7.48801 6.32876C7.58918 6.37069 7.68109 6.43216 7.75848 6.50964ZM13.5568 6.50964C14.4819 7.43481 15.0017 8.68956 15.0017 9.99798C15.0017 11.3063 14.4819 12.5611 13.5568 13.4863C13.3997 13.6381 13.1892 13.7221 12.9707 13.7202C12.7522 13.7183 12.5432 13.6306 12.3887 13.4761C12.2341 13.3216 12.1465 13.1126 12.1446 12.8941C12.1427 12.6756 12.2267 12.4651 12.3785 12.308C12.6818 12.0046 12.9225 11.6445 13.0867 11.2481C13.2508 10.8518 13.3354 10.427 13.3354 9.99798C13.3354 9.56898 13.2508 9.14415 13.0867 8.74781C12.9225 8.35148 12.6818 7.99131 12.3785 7.68797C12.2267 7.53081 12.1427 7.3203 12.1446 7.10181C12.1465 6.88331 12.2341 6.6743 12.3887 6.51979C12.5432 6.36528 12.7522 6.27764 12.9707 6.27574C13.1892 6.27385 13.3997 6.35784 13.5568 6.50964ZM10.0685 8.81798C10.4 8.81798 10.7179 8.94965 10.9523 9.18406C11.1868 9.41848 11.3185 9.73648 11.3185 10.068C11.3185 10.3995 11.1868 10.7174 10.9523 10.9518C10.7179 11.1863 10.4 11.318 10.0685 11.318C9.73692 11.318 9.419 11.1863 9.18459 10.9518C8.95017 10.7174 8.81851 10.3995 8.81851 10.068C8.81851 9.73648 8.95017 9.41848 9.18459 9.18406C9.419 8.94965 9.73692 8.81798 10.0685 8.81798Z" fill="#2563EB"/>
</svg>
