<svg width="37" height="32" viewBox="0 0 37 32" fill="none" xmlns="http://www.w3.org/2000/svg">
<path d="M10.6001 26C10.0501 26 9.57943 25.8043 9.1881 25.413C8.79676 25.0217 8.60076 24.5507 8.6001 24V14C8.6001 13.45 8.7961 12.9793 9.1881 12.588C9.5801 12.1967 10.0508 12.0007 10.6001 12H11.6001V10C11.6001 8.61667 12.0878 7.43767 13.0631 6.463C14.0384 5.48833 15.2174 5.00067 16.6001 5C17.9828 4.99933 19.1621 5.487 20.1381 6.463C21.1141 7.439 21.6014 8.618 21.6001 10V12H22.6001C23.1501 12 23.6211 12.196 24.0131 12.588C24.4051 12.98 24.6008 13.4507 24.6001 14V24C24.6001 24.55 24.4044 25.021 24.0131 25.413C23.6218 25.805 23.1508 26.0007 22.6001 26H10.6001ZM10.6001 24H22.6001V14H10.6001V24ZM16.6001 21C17.1501 21 17.6211 20.8043 18.0131 20.413C18.4051 20.0217 18.6008 19.5507 18.6001 19C18.5994 18.4493 18.4038 17.9787 18.0131 17.588C17.6224 17.1973 17.1514 17.0013 16.6001 17C16.0488 16.9987 15.5781 17.1947 15.1881 17.588C14.7981 17.9813 14.6021 18.452 14.6001 19C14.5981 19.548 14.7941 20.019 15.1881 20.413C15.5821 20.807 16.0528 21.0027 16.6001 21ZM13.6001 12H19.6001V10C19.6001 9.16667 19.3084 8.45833 18.7251 7.875C18.1418 7.29167 17.4334 7 16.6001 7C15.7668 7 15.0584 7.29167 14.4751 7.875C13.8918 8.45833 13.6001 9.16667 13.6001 10V12Z" fill="#667085"/>
</svg>
