<svg width="20" height="20" viewBox="0 0 20 20" fill="none" xmlns="http://www.w3.org/2000/svg">
<path d="M10 2C5.5888 2 2 5.5888 2 10V13.3144C2 14.1336 2.7176 14.8 3.6 14.8H4.4C4.61218 14.8 4.81566 14.7157 4.96569 14.5657C5.11571 14.4157 5.2 14.2122 5.2 14V9.8856C5.2 9.67344 5.11571 9.46992 4.96569 9.31992C4.81566 9.16992 4.61218 9.0856 4.4 9.0856H3.6736C4.1184 5.9896 6.7824 3.6 10 3.6C13.2176 3.6 15.8816 5.9896 16.3264 9.0856H15.6C15.3878 9.0856 15.1843 9.16992 15.0343 9.31992C14.8843 9.46992 14.8 9.67344 14.8 9.8856V14.8C14.8 15.6824 14.0824 16.4 13.2 16.4H11.6V15.6H8.4V18H13.2C14.9648 18 16.4 16.5648 16.4 14.8C17.2824 14.8 18 14.1336 18 13.3144V10C18 5.5888 14.4112 2 10 2Z" fill="url(#paint0_linear_21_1442)"/>
<defs>
<linearGradient id="paint0_linear_21_1442" x1="18" y1="10" x2="2" y2="10" gradientUnits="userSpaceOnUse">
<stop stop-color="#6A7282"/>
<stop offset="1" stop-color="#6A7282"/>
</linearGradient>
</defs>
</svg>
