<svg width="29" height="32" viewBox="0 0 29 32" fill="none" xmlns="http://www.w3.org/2000/svg">
<path d="M8.33631 16.7273H5.42722C5.23434 16.7273 5.04935 16.8039 4.91296 16.9403C4.77657 17.0766 4.69995 17.2617 4.69995 17.4546V23.2727C4.69995 23.4656 4.77657 23.6506 4.91296 23.787C5.04935 23.9234 5.23434 24 5.42722 24H8.33631C8.5292 24 8.71418 23.9234 8.85058 23.787C8.98697 23.6506 9.06359 23.4656 9.06359 23.2727V17.4546C9.06359 17.2617 8.98697 17.0766 8.85058 16.9403C8.71418 16.8039 8.5292 16.7273 8.33631 16.7273ZM7.60904 22.5454H6.1545V18.1818H7.60904V22.5454ZM19.9727 13.8182H17.0636C16.8707 13.8182 16.6857 13.8948 16.5493 14.0312C16.4129 14.1676 16.3364 14.3526 16.3364 14.5455V23.2727C16.3364 23.4656 16.4129 23.6506 16.5493 23.787C16.6857 23.9234 16.8707 24 17.0636 24H19.9727C20.1656 24 20.3505 23.9234 20.4869 23.787C20.6233 23.6506 20.7 23.4656 20.7 23.2727V14.5455C20.7 14.3526 20.6233 14.1676 20.4869 14.0312C20.3505 13.8948 20.1656 13.8182 19.9727 13.8182ZM19.2454 22.5454H17.7908V15.2727H19.2454V22.5454ZM14.1545 8H11.2454C11.0525 8 10.8675 8.07662 10.7311 8.21301C10.5948 8.3494 10.5181 8.53439 10.5181 8.72727V23.2727C10.5181 23.4656 10.5948 23.6506 10.7311 23.787C10.8675 23.9234 11.0525 24 11.2454 24H14.1545C14.3474 24 14.5324 23.9234 14.6688 23.787C14.8052 23.6506 14.8818 23.4656 14.8818 23.2727V8.72727C14.8818 8.53439 14.8052 8.3494 14.6688 8.21301C14.5324 8.07662 14.3474 8 14.1545 8ZM13.4272 22.5454H11.9727V9.45454H13.4272V22.5454Z" fill="#667085"/>
</svg>
