<svg width="33" height="32" viewBox="0 0 33 32" fill="none" xmlns="http://www.w3.org/2000/svg">
<path d="M7.6 9.60001C6.712 9.60001 6 10.312 6 11.2V20.8C6 21.2243 6.16857 21.6313 6.46863 21.9314C6.76869 22.2314 7.17566 22.4 7.6 22.4H20.4C20.8243 22.4 21.2313 22.2314 21.5314 21.9314C21.8314 21.6313 22 21.2243 22 20.8V11.2C22 10.7757 21.8314 10.3687 21.5314 10.0686C21.2313 9.76857 20.8243 9.60001 20.4 9.60001H7.6ZM7.6 11.2H13.2V12.904C11.792 13.272 10.8 14.544 10.8 16C10.8019 16.7086 11.0384 17.3968 11.4726 17.9569C11.9068 18.517 12.5142 18.9175 13.2 19.096V20.8H7.6V19.2H10V12.8H7.6V11.2ZM14.8 11.2H20.4V12.8H18V19.2H20.4V20.8H14.8V19.096C16.208 18.728 17.2 17.456 17.2 16C17.1981 15.2914 16.9616 14.6032 16.5274 14.0432C16.0933 13.4831 15.4858 13.0825 14.8 12.904V11.2ZM7.6 14.4H8.4V17.6H7.6V14.4ZM19.6 14.4H20.4V17.6H19.6V14.4ZM14.8 14.616C15.296 14.904 15.6 15.432 15.6 16C15.6 16.568 15.296 17.096 14.8 17.384V14.616ZM13.2 14.616V17.384C12.704 17.096 12.4 16.568 12.4 16C12.4 15.432 12.704 14.904 13.2 14.616Z" fill="#2563EB"/>
</svg>
