<svg width="37" height="32" viewBox="0 0 37 32" fill="none" xmlns="http://www.w3.org/2000/svg">
<path d="M15.1001 20C15.1001 19.6022 15.2581 19.2206 15.5394 18.9393C15.8207 18.658 16.2023 18.5 16.6001 18.5C16.9979 18.5 17.3795 18.658 17.6608 18.9393C17.9421 19.2206 18.1001 19.6022 18.1001 20C18.1001 20.3978 17.9421 20.7794 17.6608 21.0607C17.3795 21.342 16.9979 21.5 16.6001 21.5C16.2023 21.5 15.8207 21.342 15.5394 21.0607C15.2581 20.7794 15.1001 20.3978 15.1001 20Z" fill="#2563EB"/>
<path fill-rule="evenodd" clip-rule="evenodd" d="M14.4101 8.00501C14.8021 7.84895 15.2211 7.77195 15.6429 7.77844C16.0648 7.78493 16.4812 7.87477 16.8682 8.04281C17.2552 8.21085 17.6052 8.45375 17.8979 8.75756C18.1907 9.06136 18.4205 9.42006 18.5741 9.81301L18.6491 10.005C18.7425 10.2443 18.8085 10.4903 18.8471 10.743L19.0641 12.166L20.5471 11.94L20.3301 10.517C20.2747 10.1554 20.1798 9.80093 20.0471 9.46001L19.9721 9.26701C19.5511 8.18986 18.7477 7.30576 17.7156 6.78386C16.6836 6.26196 15.4953 6.1389 14.3782 6.43823C13.2611 6.73757 12.2936 7.43827 11.6607 8.40628C11.0279 9.37429 10.7742 10.5416 10.9481 11.685L10.9781 11.889C11.0341 12.2523 11.1288 12.605 11.2621 12.947L11.9171 14.622L11.5351 14.652C11.009 14.6939 10.5121 14.9109 10.1238 15.2683C9.73549 15.6258 9.47823 16.1031 9.39312 16.624C9.02716 18.8598 9.02716 21.1402 9.39312 23.376C9.47823 23.8969 9.73549 24.3742 10.1238 24.7317C10.5121 25.0892 11.009 25.3062 11.5351 25.348L13.0311 25.468C15.4071 25.658 17.7931 25.658 20.1691 25.468L21.6651 25.348C22.1912 25.3062 22.6882 25.0892 23.0765 24.7317C23.4647 24.3742 23.722 23.8969 23.8071 23.376C24.1731 21.1402 24.1731 18.8598 23.8071 16.624C23.722 16.1031 23.4647 15.6258 23.0765 15.2683C22.6882 14.9109 22.1912 14.6939 21.6651 14.652L20.1691 14.532C17.943 14.355 15.7068 14.344 13.4791 14.499L12.6591 12.401C12.5667 12.1629 12.5007 11.9155 12.4621 11.663L12.4301 11.46C12.3212 10.7451 12.4577 10.0144 12.8172 9.387C13.1768 8.75959 13.7383 8.27246 14.4101 8.00501ZM20.0501 16.028C17.7538 15.8449 15.4465 15.8449 13.1501 16.028L11.6541 16.148C11.4623 16.1632 11.281 16.2423 11.1394 16.3726C10.9979 16.503 10.9041 16.6771 10.8731 16.867C10.5336 18.9419 10.5336 21.0581 10.8731 23.133C10.9039 23.3231 10.9976 23.4975 11.1392 23.628C11.2808 23.7586 11.4621 23.8378 11.6541 23.853L13.1511 23.973C15.4471 24.156 17.7531 24.156 20.0491 23.973L21.5451 23.853C21.7373 23.838 21.9189 23.7589 22.0607 23.6283C22.2025 23.4977 22.2963 23.3233 22.3271 23.133C22.6667 21.0581 22.6667 18.9419 22.3271 16.867C22.2963 16.6767 22.2025 16.5023 22.0607 16.3717C21.9189 16.2412 21.7373 16.162 21.5451 16.147L20.0501 16.028Z" fill="#2563EB"/>
</svg>
